<svg width="168" height="33" viewBox="0 0 168 33" fill="none" xmlns="http://www.w3.org/2000/svg">
<g clip-path="url(#clip0_2206_134)">
<path d="M95.164 0.515625H86.3984V31.7632H95.164V0.515625ZM107.79 9.17756H98.9201V31.8656H107.79V9.17756ZM107.79 0.515625H98.9201V6.49773H107.79V0.515625Z" fill="#B1B1B1"/>
<path d="M0 25.575L8.76551 24.75C9.07881 25.781 9.59984 26.5024 10.2264 26.9155C10.8519 27.3286 13.0438 27.7405 14.1915 27.7405C15.3391 27.7405 14.9213 27.3286 15.5479 26.9155C16.0701 26.5036 16.2778 26.0905 16.2778 25.575C16.2778 24.956 15.9657 24.4405 15.2346 24.131C14.7125 23.925 13.4604 23.6155 11.4774 23.2036C8.45222 22.6881 6.2614 22.1714 5.11265 21.7584C3.96616 21.3464 2.92184 20.5214 2.08751 19.4905C1.25205 18.4595 0.834324 17.2214 0.834324 15.881C0.834324 14.3334 1.25205 13.0964 2.19081 12.0655C3.02627 11.0345 4.27832 10.2095 5.84368 9.59048C7.40903 9.075 9.49541 8.76548 11.9995 8.76548C14.7125 8.76548 16.8 8.97145 18.0521 9.38452C19.4085 9.79645 20.4517 10.4155 21.2872 11.2405C22.1215 12.0655 22.8525 13.3036 23.478 14.7464L15.1302 15.5714C14.9214 14.85 14.6081 14.3345 14.0859 13.9214C13.356 13.5095 12.6261 13.2 11.5829 13.2C10.643 13.2 9.91313 13.406 9.39211 13.7155C9.19358 13.8537 9.0324 14.0392 8.92303 14.2553C8.81367 14.4714 8.75954 14.7113 8.76551 14.9536C8.76551 15.469 9.07881 15.881 9.59984 16.1905C10.122 16.5 11.4785 16.706 13.3571 17.0155C16.2778 17.325 18.4698 17.8405 19.8263 18.356C21.2872 18.975 22.3304 19.8 23.0614 20.831C23.8104 21.8845 24.2114 23.1468 24.2079 24.4405C24.2079 25.781 23.7913 27.019 23.0614 28.256C22.2259 29.494 20.9739 30.525 19.3041 31.2464C17.6355 31.969 15.2346 32.381 12.3128 32.381C8.13892 32.381 5.11265 31.7631 3.33957 30.6286C1.66865 29.3905 0.522162 27.7405 0 25.575ZM29.4261 29.5976C31.7225 31.4524 34.6432 32.381 38.4005 32.381C42.5744 32.381 45.8084 31.2464 48.1048 29.081C50.4 26.8119 51.6521 24.0286 51.6521 20.5214C51.6521 17.4286 50.7133 14.85 48.8346 12.6845C46.5405 10.0024 42.991 8.76548 38.4016 8.76548C34.3322 8.76548 31.2015 9.9 28.8018 12.1679C26.401 14.4381 25.2533 17.2214 25.2533 20.7285C25.2533 24.2334 26.7143 27.225 29.4272 29.5964L29.4261 29.5976ZM35.3742 15.9845C36.2085 14.9536 37.2529 14.5405 38.6093 14.5405C39.8614 14.5405 40.8002 15.056 41.6345 15.9845C42.4699 16.9131 42.8877 18.4595 42.8877 20.419C42.8877 22.5845 42.4699 24.131 41.6345 25.0595C40.8002 25.9881 39.757 26.5036 38.5049 26.5036C37.2529 26.5036 36.2085 25.9869 35.3742 25.0584C34.5388 24.0286 34.1222 22.5845 34.1222 20.5214C34.1222 18.4595 34.5388 16.9131 35.3742 15.9845ZM63.445 9.17855H67.6189V15.5714H63.445V31.8666H54.575V15.5714H51.2366V9.17855H54.575V8.14645C54.575 7.21903 54.6795 6.18807 54.8883 5.05355C55.0972 3.91903 55.5149 2.99048 56.0359 2.37145C56.6988 1.61844 57.5183 1.02026 58.4368 0.619034C59.4799 0.204828 60.9409 0 62.8184 0C64.3849 0 66.5757 0.205966 69.6019 0.515483L68.5576 5.775C67.5144 5.56903 66.6801 5.56903 65.9491 5.56903C65.1148 5.56903 64.5926 5.67145 64.2804 5.98097C63.9671 6.18693 63.7583 6.6 63.6538 7.11548C63.5494 7.425 63.445 8.14645 63.445 9.17855Z" fill="#6F6F6F"/>
<path d="M79.3052 15.5716V23.6168C79.3052 24.5442 79.4096 25.2668 79.6185 25.5751C79.9318 26.0906 80.4539 26.2966 81.0794 26.2966C81.706 26.2966 82.6447 26.0918 83.7924 25.7811L84.419 31.7632C82.2282 32.2787 80.2451 32.4847 78.3664 32.4847C76.1756 32.4847 74.6091 32.1751 73.5659 31.6597C72.5227 31.1442 71.7929 30.2156 71.2707 29.0811C70.7485 27.9466 70.5408 26.0906 70.5408 23.6156V15.6751H67.3057V9.17756H70.5408V5.05483L79.3052 0.515625V15.5716Z" fill="#6F6F6F"/>
<path d="M111.13 9.17831H119.374V12.8902C120.626 11.3427 121.878 10.3128 123.13 9.69266C124.382 9.07476 125.948 8.76524 127.722 8.76524C130.122 8.76524 132.105 9.48783 133.461 10.9307C134.818 12.3748 135.548 14.5402 135.548 17.5307V31.9688H126.678V19.3878C126.678 17.9427 126.366 16.9128 125.843 16.3962C125.321 15.7783 124.591 15.4688 123.548 15.4688C122.504 15.4688 121.67 15.8807 120.94 16.7057C120.313 17.5307 119.895 18.9748 119.895 21.0378V31.9688H111.026V9.17831H111.13ZM163.931 21.6557C163.931 18.6652 163.41 16.1902 162.471 14.3343C161.426 12.4783 160.07 11.0343 158.088 10.0033C156.209 8.97121 153.601 8.55928 150.366 8.55928C146.296 8.55928 143.166 9.6938 140.87 11.8593C138.575 14.0248 137.426 16.9117 137.426 20.4188C137.426 22.8938 137.949 25.0593 139.096 26.9164C140.244 28.7712 141.705 30.1128 143.374 30.9378C145.149 31.7628 147.548 32.1748 150.575 32.1748C154.019 32.1748 156.732 31.6593 158.609 30.7307C160.488 29.6998 162.053 28.1533 163.41 25.8843L154.749 25.0593C154.226 25.7807 153.705 26.1938 153.183 26.5033C152.449 26.9119 151.623 27.1247 150.783 27.1212C149.427 27.1212 148.384 26.6057 147.444 25.6783C146.818 24.9557 146.505 23.9259 146.296 22.5843H163.827V21.6557H163.931ZM146.401 18.5628C146.505 17.2223 146.923 16.1902 147.444 15.4677C148.279 14.3343 149.427 13.8177 150.783 13.8177C152.036 13.8177 152.974 14.2307 153.705 14.9533C154.435 15.6748 154.853 16.9128 155.062 18.5628H146.401ZM40.3825 3.50573C50.4001 4.53669 54.4695 5.46524 63.8605 7.94024C71.6861 10.0033 84.1034 9.07476 84.1034 9.07476V15.4688C79.1996 16.0867 68.661 15.8807 59.8955 12.6843C44.1387 7.11524 37.0429 5.98186 28.6951 5.36169C17.2167 4.53669 3.6518 6.29024 3.6518 6.29024L3.54736 5.15573C3.54736 5.15573 23.1648 1.75331 40.3825 3.50573ZM163.62 4.74379H164.037C164.663 4.74379 164.767 4.43428 164.767 4.22831C164.767 3.81524 164.142 3.81524 164.037 3.81524H163.62V4.74379ZM164.351 3.09379C165.289 3.09379 165.707 3.60928 165.707 4.12476C165.707 4.64024 165.289 4.94976 164.872 5.05331C165.081 5.15573 165.289 5.36283 165.289 5.46524L165.915 7.01283H164.872L164.351 5.77476C164.351 5.67235 164.142 5.46524 163.828 5.46524H163.62V7.01283H162.576V3.09379H164.351ZM164.037 8.04379C165.707 8.04379 167.064 6.70331 167.064 5.05331C167.064 3.40331 165.707 2.06283 164.037 2.06283C162.368 2.06283 161.011 3.40331 161.011 5.05331C161.011 6.70331 162.368 8.04379 164.037 8.04379ZM164.037 1.13428C166.228 1.13428 168.002 2.88669 168.002 5.05331C168.002 7.21879 166.228 8.97235 164.037 8.97235C161.845 8.97235 160.072 7.21879 160.072 5.05331C160.177 2.88783 161.845 1.13428 164.037 1.13428Z" fill="#B1B1B1"/>
</g>
<defs>
<clipPath id="clip0_2206_134">
<rect width="168" height="33" fill="white"/>
</clipPath>
</defs>
</svg>
