<svg width="306" height="95" viewBox="0 0 306 95" fill="none" xmlns="http://www.w3.org/2000/svg">
<mask id="mask0_1921_3152" style="mask-type:alpha" maskUnits="userSpaceOnUse" x="0" y="0" width="306" height="95">
<rect width="306" height="95" fill="#D9D9D9"/>
</mask>
<g mask="url(#mask0_1921_3152)">
</g>
<g clip-path="url(#clip0_1921_3152)">
<path d="M164.164 31.5156H155.398V62.7632H164.164V31.5156ZM176.79 40.1776H167.92V62.8656H176.79V40.1776ZM176.79 31.5156H167.92V37.4977H176.79V31.5156Z" fill="#B1B1B1"/>
<path d="M69 56.575L77.7655 55.75C78.0788 56.781 78.5998 57.5024 79.2264 57.9155C79.8519 58.3286 82.0438 58.7405 83.1915 58.7405C84.3391 58.7405 83.9213 58.3286 84.5479 57.9155C85.0701 57.5036 85.2778 57.0905 85.2778 56.575C85.2778 55.956 84.9657 55.4405 84.2346 55.131C83.7125 54.925 82.4604 54.6155 80.4774 54.2036C77.4522 53.6881 75.2614 53.1714 74.1126 52.7584C72.9662 52.3464 71.9218 51.5214 71.0875 50.4905C70.2521 49.4595 69.8343 48.2214 69.8343 46.881C69.8343 45.3334 70.2521 44.0964 71.1908 43.0655C72.0263 42.0345 73.2783 41.2095 74.8437 40.5905C76.409 40.075 78.4954 39.7655 80.9995 39.7655C83.7125 39.7655 85.8 39.9714 87.0521 40.3845C88.4085 40.7964 89.4517 41.4155 90.2872 42.2405C91.1215 43.0655 91.8525 44.3036 92.478 45.7464L84.1302 46.5714C83.9214 45.85 83.6081 45.3345 83.0859 44.9214C82.356 44.5095 81.6261 44.2 80.5829 44.2C79.643 44.2 78.9131 44.406 78.3921 44.7155C78.1936 44.8537 78.0324 45.0392 77.923 45.2553C77.8137 45.4714 77.7595 45.7113 77.7655 45.9536C77.7655 46.469 78.0788 46.881 78.5998 47.1905C79.122 47.5 80.4785 47.706 82.3571 48.0155C85.2778 48.325 87.4698 48.8405 88.8263 49.356C90.2872 49.975 91.3304 50.8 92.0614 51.831C92.8104 52.8845 93.2114 54.1468 93.2079 55.4405C93.2079 56.781 92.7913 58.019 92.0614 59.256C91.2259 60.494 89.9739 61.525 88.3041 62.2464C86.6355 62.969 84.2346 63.381 81.3128 63.381C77.1389 63.381 74.1126 62.7631 72.3396 61.6286C70.6686 60.3905 69.5222 58.7405 69 56.575ZM98.4261 60.5976C100.722 62.4524 103.643 63.381 107.4 63.381C111.574 63.381 114.808 62.2464 117.105 60.081C119.4 57.8119 120.652 55.0286 120.652 51.5214C120.652 48.4286 119.713 45.85 117.835 43.6845C115.541 41.0024 111.991 39.7655 107.402 39.7655C103.332 39.7655 100.201 40.9 97.8018 43.1679C95.401 45.4381 94.2533 48.2214 94.2533 51.7285C94.2533 55.2334 95.7143 58.225 98.4272 60.5964L98.4261 60.5976ZM104.374 46.9845C105.209 45.9536 106.253 45.5405 107.609 45.5405C108.861 45.5405 109.8 46.056 110.634 46.9845C111.47 47.9131 111.888 49.4595 111.888 51.419C111.888 53.5845 111.47 55.131 110.634 56.0595C109.8 56.9881 108.757 57.5036 107.505 57.5036C106.253 57.5036 105.209 56.9869 104.374 56.0584C103.539 55.0286 103.122 53.5845 103.122 51.5214C103.122 49.4595 103.539 47.9131 104.374 46.9845ZM132.445 40.1786H136.619V46.5714H132.445V62.8666H123.575V46.5714H120.237V40.1786H123.575V39.1464C123.575 38.219 123.679 37.1881 123.888 36.0536C124.097 34.919 124.515 33.9905 125.036 33.3714C125.699 32.6184 126.518 32.0203 127.437 31.619C128.48 31.2048 129.941 31 131.818 31C133.385 31 135.576 31.206 138.602 31.5155L137.558 36.775C136.514 36.569 135.68 36.569 134.949 36.569C134.115 36.569 133.593 36.6714 133.28 36.981C132.967 37.1869 132.758 37.6 132.654 38.1155C132.549 38.425 132.445 39.1464 132.445 40.1786Z" fill="#6F6F6F"/>
<path d="M148.305 46.5716V54.6168C148.305 55.5442 148.41 56.2668 148.618 56.5751C148.932 57.0906 149.454 57.2966 150.079 57.2966C150.706 57.2966 151.645 57.0918 152.792 56.7811L153.419 62.7632C151.228 63.2787 149.245 63.4847 147.366 63.4847C145.176 63.4847 143.609 63.1751 142.566 62.6597C141.523 62.1442 140.793 61.2156 140.271 60.0811C139.749 58.9466 139.541 57.0906 139.541 54.6156V46.6751H136.306V40.1776H139.541V36.0548L148.305 31.5156V46.5716Z" fill="#6F6F6F"/>
<path d="M180.13 40.1783H188.374V43.8902C189.626 42.3427 190.878 41.3128 192.13 40.6927C193.382 40.0748 194.948 39.7652 196.722 39.7652C199.122 39.7652 201.105 40.4878 202.461 41.9307C203.818 43.3748 204.548 45.5402 204.548 48.5307V62.9688H195.678V50.3878C195.678 48.9427 195.366 47.9128 194.843 47.3962C194.321 46.7783 193.591 46.4688 192.548 46.4688C191.504 46.4688 190.67 46.8807 189.94 47.7057C189.313 48.5307 188.895 49.9748 188.895 52.0378V62.9688H180.026V40.1783H180.13ZM232.931 52.6557C232.931 49.6652 232.41 47.1902 231.471 45.3343C230.426 43.4783 229.07 42.0343 227.088 41.0033C225.209 39.9712 222.601 39.5593 219.366 39.5593C215.296 39.5593 212.166 40.6938 209.87 42.8593C207.575 45.0248 206.426 47.9117 206.426 51.4188C206.426 53.8938 206.949 56.0593 208.096 57.9164C209.244 59.7712 210.705 61.1128 212.374 61.9378C214.149 62.7628 216.548 63.1748 219.575 63.1748C223.019 63.1748 225.732 62.6593 227.609 61.7307C229.488 60.6998 231.053 59.1533 232.41 56.8843L223.749 56.0593C223.226 56.7807 222.705 57.1938 222.183 57.5033C221.449 57.9119 220.623 58.1247 219.783 58.1212C218.427 58.1212 217.384 57.6057 216.444 56.6783C215.818 55.9557 215.505 54.9259 215.296 53.5843H232.827V52.6557H232.931ZM215.401 49.5628C215.505 48.2223 215.923 47.1902 216.444 46.4677C217.279 45.3343 218.427 44.8177 219.783 44.8177C221.036 44.8177 221.974 45.2307 222.705 45.9533C223.435 46.6748 223.853 47.9128 224.062 49.5628H215.401ZM109.382 34.5057C119.4 35.5367 123.47 36.4652 132.861 38.9402C140.686 41.0033 153.103 40.0748 153.103 40.0748V46.4688C148.2 47.0867 137.661 46.8807 128.895 43.6843C113.139 38.1152 106.043 36.9819 97.6951 36.3617C86.2167 35.5367 72.6518 37.2902 72.6518 37.2902L72.5474 36.1557C72.5474 36.1557 92.1648 32.7533 109.382 34.5057ZM232.62 35.7438H233.037C233.663 35.7438 233.767 35.4343 233.767 35.2283C233.767 34.8152 233.142 34.8152 233.037 34.8152H232.62V35.7438ZM233.351 34.0938C234.289 34.0938 234.707 34.6093 234.707 35.1248C234.707 35.6402 234.289 35.9498 233.872 36.0533C234.081 36.1557 234.289 36.3628 234.289 36.4652L234.915 38.0128H233.872L233.351 36.7748C233.351 36.6723 233.142 36.4652 232.828 36.4652H232.62V38.0128H231.576V34.0938H233.351ZM233.037 39.0438C234.707 39.0438 236.064 37.7033 236.064 36.0533C236.064 34.4033 234.707 33.0628 233.037 33.0628C231.368 33.0628 230.011 34.4033 230.011 36.0533C230.011 37.7033 231.368 39.0438 233.037 39.0438ZM233.037 32.1343C235.228 32.1343 237.002 33.8867 237.002 36.0533C237.002 38.2188 235.228 39.9723 233.037 39.9723C230.845 39.9723 229.072 38.2188 229.072 36.0533C229.177 33.8878 230.845 32.1343 233.037 32.1343Z" fill="#B1B1B1"/>
</g>
<defs>
<clipPath id="clip0_1921_3152">
<rect width="168" height="33" fill="white" transform="translate(69 31)"/>
</clipPath>
</defs>
</svg>
