<svg width="306" height="95" viewBox="0 0 306 95" fill="none" xmlns="http://www.w3.org/2000/svg">
<mask id="mask0_1921_3230" style="mask-type:alpha" maskUnits="userSpaceOnUse" x="0" y="0" width="306" height="95">
<rect width="306" height="95" fill="#D9D9D9"/>
</mask>
<g mask="url(#mask0_1921_3230)">
</g>
<g clip-path="url(#clip0_1921_3230)">
<path d="M136.497 21.5025L130.909 27.2169L137.13 32.0826L134.02 35.5905L127.856 30.8945L122.327 36.8918L128.605 42.0404L122.903 48.3205L128.663 53.0165L144.043 36.6655L147.672 39.6641L142.027 46.2271L147.672 51.206L153.662 44.7561L160.69 50.5271L165.471 45.4351L159.077 40.0601L162.994 36.2694L178.719 51.2626L183.673 46.1706L177.452 40.0601L182.406 34.6852L176.357 28.688L171.346 34.5721L167.717 31.4037L172.901 25.9722L167.256 20.7104L153.029 34.5155L136.497 21.5025Z" fill="#787878"/>
<path d="M153.029 5.97247L144.15 14.6938L153.029 23.4152L161.908 14.6938L153.029 5.97247Z" fill="#B1B1B1"/>
<path d="M131.601 86.9634V82.0977H132.868V83.9647H134.884V82.0977H136.151V86.9634H134.884V84.9831H132.868V86.9634H131.601Z" fill="black"/>
<path d="M139.722 87.0764C139.319 87.0764 138.974 87.0198 138.628 86.8501C138.282 86.7369 138.052 86.5106 137.822 86.2843C137.591 86.058 137.418 85.7751 137.303 85.4922C137.188 85.2093 137.13 84.8699 137.13 84.5304C137.13 84.0778 137.246 83.6251 137.476 83.2291C137.706 82.833 137.994 82.5502 138.398 82.3238C138.801 82.0975 139.262 81.9844 139.838 81.9844C140.414 81.9844 140.875 82.0975 141.22 82.3238C141.623 82.5502 141.911 82.8896 142.142 83.2291C142.372 83.6251 142.43 84.0212 142.43 84.4738C142.43 84.5304 142.43 84.6435 142.43 84.7001C142.43 84.7567 142.43 84.8699 142.43 84.8699H138.57C138.57 85.0962 138.686 85.3225 138.801 85.4922C138.916 85.6619 139.089 85.8317 139.262 85.8883C139.434 86.0014 139.665 86.058 139.895 86.058C140.126 86.058 140.414 86.0014 140.644 85.8883C140.875 85.7751 141.047 85.6054 141.105 85.3791L142.199 85.6619C142.084 85.8883 141.911 86.1146 141.681 86.3409C141.451 86.5106 141.163 86.6804 140.875 86.7935C140.471 87.0198 140.126 87.0764 139.722 87.0764ZM138.455 84.1343H141.105C141.105 83.908 140.99 83.6817 140.875 83.512C140.759 83.3422 140.587 83.1725 140.414 83.1159C140.241 83.0028 140.01 82.9462 139.78 82.9462C139.55 82.9462 139.319 83.0028 139.146 83.1159C138.974 83.2291 138.801 83.3422 138.686 83.512C138.57 83.6817 138.455 83.908 138.455 84.1343Z" fill="black"/>
<path d="M145.54 88.9999V87.0197H145.425C144.907 87.0197 144.446 86.9066 144.043 86.6802C143.697 86.4539 143.409 86.171 143.179 85.775C143.006 85.3789 142.891 84.9829 142.891 84.5869C142.891 84.1342 143.006 83.7382 143.179 83.3421C143.351 82.9461 143.639 82.6632 144.043 82.4369C144.388 82.2106 144.849 82.0974 145.368 82.0974H145.483V80.1172H146.75V82.0974H146.923C147.441 82.0974 147.902 82.2106 148.248 82.4369C148.651 82.6632 148.939 82.9461 149.112 83.3421C149.284 83.7382 149.4 84.1342 149.4 84.5869C149.4 85.0395 149.284 85.4355 149.112 85.775C148.939 86.171 148.651 86.4539 148.248 86.6802C147.902 86.9066 147.441 87.0197 146.865 87.0197H146.692V88.9999H145.54ZM145.368 85.9447H145.598V83.0592H145.368C145.137 83.0592 144.907 83.1158 144.734 83.229C144.561 83.3421 144.388 83.5119 144.273 83.7382C144.158 83.9645 144.1 84.1908 144.1 84.4737C144.1 84.7566 144.158 84.9829 144.273 85.2092C144.388 85.4355 144.503 85.6053 144.734 85.7184C144.907 85.8881 145.137 85.9447 145.368 85.9447ZM146.75 85.9447H146.98C147.211 85.9447 147.441 85.8881 147.614 85.775C147.787 85.6618 147.96 85.4921 148.075 85.2658C148.19 85.0395 148.248 84.8132 148.248 84.5303C148.248 84.2474 148.19 84.0211 148.075 83.7948C147.96 83.5684 147.844 83.3987 147.614 83.2856C147.441 83.1724 147.211 83.1158 146.98 83.1158H146.75V85.9447Z" fill="black"/>
<path d="M151.531 86.9634V83.1726H149.918V82.0977H154.411V83.1726H152.798V86.9634H151.531Z" fill="black"/>
<path d="M157.464 87.0764C157.061 87.0764 156.715 87.0198 156.37 86.8501C156.024 86.7369 155.794 86.5106 155.563 86.2843C155.333 86.058 155.16 85.7751 155.045 85.4922C154.93 85.2093 154.872 84.8699 154.872 84.5304C154.872 84.0778 154.987 83.6251 155.218 83.2291C155.448 82.833 155.736 82.5502 156.139 82.3238C156.543 82.0975 157.003 81.9844 157.579 81.9844C158.155 81.9844 158.616 82.0975 158.962 82.3238C159.365 82.5502 159.653 82.8896 159.883 83.2291C160.114 83.6251 160.171 84.0212 160.171 84.4738C160.171 84.5304 160.171 84.6435 160.171 84.7001C160.171 84.7567 160.171 84.8699 160.171 84.8699H156.312C156.312 85.0962 156.427 85.3225 156.543 85.4922C156.658 85.6619 156.831 85.8317 157.003 85.8883C157.176 85.9448 157.407 86.058 157.637 86.058C157.867 86.058 158.155 86.0014 158.386 85.8883C158.616 85.7751 158.789 85.6054 158.847 85.3791L159.941 85.6619C159.826 85.8883 159.653 86.1146 159.423 86.3409C159.192 86.5106 158.904 86.6804 158.616 86.7935C158.213 87.0198 157.867 87.0764 157.464 87.0764ZM156.197 84.1343H158.847C158.847 83.908 158.731 83.6817 158.616 83.512C158.501 83.3422 158.328 83.1725 158.155 83.1159C157.983 83.0028 157.752 82.9462 157.522 82.9462C157.291 82.9462 157.061 83.0028 156.888 83.1159C156.715 83.2291 156.543 83.3422 156.427 83.512C156.255 83.6817 156.197 83.908 156.197 84.1343Z" fill="black"/>
<path d="M160.92 86.9634V82.0977H164.261V83.1726H162.245V86.9634H160.92Z" fill="black"/>
<path d="M164.664 85.5488C164.664 85.2093 164.779 84.983 164.952 84.7001C165.125 84.4738 165.413 84.3041 165.701 84.1343C166.047 84.0212 166.392 83.9646 166.795 83.9646C167.026 83.9646 167.199 83.9646 167.429 84.0212C167.659 84.0778 167.832 84.0778 168.005 84.1909V83.908C168.005 83.6251 167.89 83.3422 167.717 83.1725C167.544 83.0028 167.256 82.9462 166.853 82.9462C166.565 82.9462 166.335 83.0028 166.047 83.0594C165.816 83.1725 165.528 83.2857 165.24 83.4554L164.837 82.6067C165.182 82.3804 165.528 82.2107 165.874 82.1541C166.219 82.041 166.565 81.9844 166.968 81.9844C167.659 81.9844 168.235 82.1541 168.639 82.4936C169.042 82.833 169.215 83.3422 169.215 83.9646V85.4922C169.215 85.6054 169.215 85.7185 169.272 85.7751C169.33 85.8317 169.387 85.8883 169.503 85.8883V86.9067C169.387 86.9067 169.272 86.9632 169.215 86.9632C169.099 86.9632 169.042 86.9632 168.984 86.9632C168.754 86.9632 168.523 86.9067 168.408 86.7935C168.293 86.6804 168.178 86.5672 168.178 86.3975L168.12 86.1711C167.89 86.454 167.659 86.6804 167.314 86.7935C166.968 86.9632 166.68 87.0198 166.335 87.0198C165.989 87.0198 165.701 86.9632 165.413 86.7935C165.125 86.6238 164.952 86.454 164.779 86.2277C164.779 86.1146 164.664 85.8317 164.664 85.5488ZM167.775 85.7751C167.832 85.7185 167.89 85.6054 167.947 85.5488C168.005 85.4922 168.005 85.4356 168.005 85.3225V84.8133C167.832 84.7567 167.659 84.7001 167.487 84.6435C167.314 84.587 167.141 84.587 166.968 84.587C166.623 84.587 166.392 84.6435 166.162 84.8133C165.931 84.9264 165.816 85.1527 165.816 85.3791C165.816 85.4922 165.874 85.6054 165.931 85.7185C165.989 85.8317 166.104 85.9448 166.219 86.0014C166.335 86.058 166.507 86.1146 166.68 86.1146C166.853 86.1146 167.083 86.058 167.256 86.0014C167.544 85.9448 167.717 85.8883 167.775 85.7751Z" fill="black"/>
<path d="M172.325 87.0763C171.807 87.0763 171.346 86.9632 171 86.7934C170.655 86.6237 170.367 86.3408 170.136 86.0014L171.173 85.5487C171.288 85.7185 171.403 85.8316 171.576 85.9448C171.749 86.0579 171.979 86.0579 172.21 86.0579C172.498 86.0579 172.728 86.0014 172.901 85.8882C173.074 85.775 173.132 85.6053 173.132 85.4356C173.132 85.2658 173.074 85.0961 172.959 85.0395C172.844 84.9264 172.613 84.8698 172.383 84.8698H171.864V84.0777H172.383C172.498 84.0777 172.613 84.0777 172.671 84.0211C172.728 83.9645 172.844 83.908 172.844 83.8514C172.901 83.7948 172.901 83.6817 172.901 83.5685C172.901 83.3988 172.844 83.2856 172.728 83.1724C172.613 83.0593 172.383 83.0027 172.152 83.0027C171.922 83.0027 171.749 83.0593 171.576 83.1159C171.461 83.1725 171.288 83.3422 171.231 83.4553L170.251 82.9461C170.424 82.6633 170.712 82.3804 171 82.2106C171.346 82.0409 171.749 81.9277 172.152 81.9277C172.498 81.9277 172.844 81.9843 173.074 82.0975C173.362 82.2106 173.592 82.3804 173.708 82.5501C173.88 82.7764 173.938 83.0027 173.938 83.2856C173.938 83.5119 173.88 83.6817 173.765 83.908C173.65 84.1343 173.477 84.2474 173.247 84.3606C173.535 84.4737 173.765 84.5869 173.938 84.8132C174.111 85.0395 174.168 85.2658 174.168 85.5487C174.168 85.8882 174.053 86.1145 173.88 86.3408C173.708 86.5671 173.477 86.7369 173.132 86.85C173.132 87.0198 172.728 87.0763 172.325 87.0763Z" fill="black"/>
<path d="M119.044 75.1384V68.5753L116.221 73.4411H115.011L112.189 68.5753V75.1384H110V65.1807H112.304L115.587 70.8385L118.871 65.1807H121.175V75.1384H119.044Z" fill="black"/>
<path d="M131.255 73.4411V75.1384H123.594V65.1807H131.14V66.878H125.726V69.2543H130.391V70.8385H125.726V73.4411H131.255Z" fill="black"/>
<path d="M132.119 70.0462C132.119 69.4239 132.234 68.8581 132.465 68.2358C132.695 67.67 133.041 67.1042 133.559 66.6516C134.02 66.1424 134.596 65.8029 135.287 65.52C135.978 65.2371 136.727 65.0674 137.591 65.0674C138.628 65.0674 139.492 65.2937 140.241 65.6897C140.99 66.0858 141.566 66.595 141.912 67.2739L140.241 68.2923C140.068 67.8963 139.78 67.6134 139.492 67.3871C139.204 67.1608 138.859 66.991 138.513 66.9345C138.167 66.8213 137.822 66.8213 137.476 66.8213C136.958 66.8213 136.439 66.9345 136.036 67.1042C135.633 67.2739 135.287 67.5568 135.057 67.8963C134.769 68.2358 134.596 68.5752 134.481 68.9713C134.366 69.3673 134.308 69.7634 134.308 70.1594C134.308 70.612 134.366 71.0081 134.538 71.4041C134.711 71.8002 134.942 72.1962 135.23 72.4791C135.518 72.8186 135.863 73.0449 136.266 73.2146C136.67 73.3844 137.131 73.4975 137.591 73.4975C137.937 73.4975 138.283 73.4409 138.628 73.3278C138.974 73.2146 139.319 73.0449 139.607 72.8186C139.895 72.5923 140.126 72.3094 140.299 71.9699L142.084 72.8752C141.854 73.3844 141.508 73.7804 140.99 74.1199C140.471 74.4593 139.953 74.7422 139.319 74.912C138.686 75.0817 138.11 75.1949 137.476 75.1949C136.67 75.1949 135.978 75.0251 135.287 74.7422C134.654 74.4593 134.078 74.0633 133.617 73.5541C133.156 73.0449 132.753 72.5357 132.522 71.9133C132.292 71.291 132.119 70.6686 132.119 70.0462Z" fill="black"/>
<path d="M142.775 70.0462C142.775 69.4239 142.891 68.8581 143.121 68.2358C143.351 67.67 143.697 67.1042 144.215 66.6516C144.676 66.1424 145.252 65.8029 145.944 65.52C146.635 65.2371 147.384 65.0674 148.248 65.0674C149.284 65.0674 150.148 65.2937 150.897 65.6897C151.646 66.0858 152.222 66.595 152.568 67.2739L150.897 68.2923C150.724 67.8963 150.436 67.6134 150.148 67.3871C149.86 67.1608 149.515 66.991 149.169 66.9345C148.824 66.8213 148.478 66.8213 148.132 66.8213C147.614 66.8213 147.096 66.9345 146.692 67.1042C146.289 67.2739 145.944 67.5568 145.713 67.8963C145.425 68.2358 145.252 68.5752 145.137 68.9713C145.022 69.3673 144.964 69.7634 144.964 70.1594C144.964 70.612 145.022 71.0081 145.195 71.4041C145.367 71.8002 145.598 72.1962 145.886 72.4791C146.174 72.8186 146.52 73.0449 146.923 73.2146C147.326 73.3844 147.787 73.4975 148.248 73.4975C148.593 73.4975 148.939 73.4409 149.284 73.3278C149.63 73.2146 149.976 73.0449 150.264 72.8186C150.552 72.5923 150.782 72.3094 150.955 71.9699L152.741 72.8752C152.51 73.3844 152.165 73.7804 151.646 74.1199C151.128 74.4593 150.609 74.7422 149.976 74.912C149.342 75.0817 148.766 75.1949 148.132 75.1949C147.326 75.1949 146.635 75.0251 145.944 74.7422C145.31 74.4593 144.734 74.0633 144.273 73.5541C143.812 73.0449 143.409 72.5357 143.179 71.9133C142.891 71.291 142.775 70.6686 142.775 70.0462Z" fill="black"/>
<path d="M158.847 75.1949C158.04 75.1949 157.291 75.0817 156.658 74.7988C156.024 74.5159 155.448 74.1199 154.93 73.6672C154.469 73.158 154.066 72.6488 153.835 72.0265C153.547 71.4041 153.432 70.7818 153.432 70.1594C153.432 69.4805 153.547 68.8581 153.835 68.2358C154.123 67.6134 154.469 67.1042 154.987 66.595C155.448 66.1424 156.024 65.7463 156.715 65.4634C157.349 65.1805 158.098 65.0674 158.904 65.0674C159.711 65.0674 160.46 65.2371 161.093 65.52C161.727 65.8029 162.303 66.1989 162.764 66.7081C163.224 67.2173 163.57 67.7265 163.858 68.3489C164.146 68.9713 164.261 69.5936 164.261 70.216C164.261 70.8949 164.146 71.5173 163.858 72.0831C163.57 72.6488 163.224 73.2146 162.706 73.7238C162.245 74.1764 161.669 74.5725 160.978 74.8554C160.344 75.0251 159.596 75.1949 158.847 75.1949ZM155.621 70.1028C155.621 70.5555 155.679 70.9515 155.851 71.3475C156.024 71.7436 156.197 72.0831 156.485 72.4225C156.773 72.762 157.119 72.9883 157.522 73.158C157.925 73.3278 158.386 73.4409 158.904 73.4409C159.423 73.4409 159.884 73.3278 160.287 73.158C160.69 72.9883 161.036 72.7054 161.324 72.366C161.612 72.0265 161.784 71.687 161.957 71.291C162.072 70.8949 162.188 70.4989 162.188 70.1028C162.188 69.6502 162.13 69.2542 161.957 68.8581C161.784 68.4621 161.612 68.1226 161.324 67.7831C161.036 67.4437 160.69 67.2173 160.287 67.0476C159.884 66.8779 159.423 66.7647 158.962 66.7647C158.444 66.7647 157.983 66.8779 157.579 67.0476C157.176 67.2173 156.831 67.5002 156.6 67.8397C156.312 68.1792 156.139 68.5186 155.967 68.9147C155.679 69.3107 155.621 69.7068 155.621 70.1028Z" fill="black"/>
<path d="M165.644 75.1384L168.351 71.1214C167.66 70.895 167.141 70.5556 166.738 70.0464C166.335 69.5372 166.162 68.9148 166.162 68.2359C166.162 67.6701 166.335 67.1043 166.623 66.6517C166.911 66.1991 167.372 65.803 167.948 65.5767C168.524 65.2938 169.157 65.1807 169.906 65.1807H174.226V75.1384H172.095V71.3477H170.943C170.885 71.3477 170.828 71.3477 170.77 71.3477C170.713 71.3477 170.655 71.3477 170.597 71.3477L168.12 75.1384H165.644ZM170.137 69.7069H172.095V66.8214H170.194C169.849 66.8214 169.561 66.878 169.272 66.9912C168.984 67.1043 168.754 67.2741 168.639 67.4438C168.466 67.6701 168.408 67.8964 168.408 68.2359C168.408 68.5753 168.466 68.8017 168.639 69.028C168.812 69.2543 168.984 69.424 169.272 69.5372C169.503 69.6503 169.791 69.7069 170.137 69.7069Z" fill="black"/>
<path d="M177.74 65.124L180.505 68.8016L183.212 65.124H185.574L181.715 70.1595L185.459 75.0818H183.097L180.505 71.5173L177.855 75.0818H175.494L179.238 70.1595L175.378 65.124H177.74Z" fill="black"/>
<path d="M189.722 65.124H191.91L196 75.0818H193.754L192.832 72.5923H188.742L187.821 75.0818H185.574L189.722 65.124ZM192.371 71.2345L190.874 67.1043L189.318 71.2345H192.371Z" fill="black"/>
</g>
<defs>
<clipPath id="clip0_1921_3230">
<rect width="86" height="83" fill="white" transform="translate(110 6)"/>
</clipPath>
</defs>
</svg>
